<?xml version="1.0" encoding="iso-8859-1"?>
<!-- Uploaded to: SVG Repo, www.svgrepo.com, Generator: SVG Repo Mixer Tools -->
<!DOCTYPE svg PUBLIC "-//W3C//DTD SVG 1.1//EN" "http://www.w3.org/Graphics/SVG/1.1/DTD/svg11.dtd">
<svg fill="#124a94" height="800px" width="800px" version="1.1" id="Capa_1" xmlns="http://www.w3.org/2000/svg" xmlns:xlink="http://www.w3.org/1999/xlink" 
	 viewBox="0 0 60.969 60.969" xml:space="preserve">
<path style="fill:#124a94;" d="M5.193,12.367l1.668-0.362c1.918-0.416,3.141-2.314,2.726-4.233l-0.878-4.05
	C8.355,2.096,6.89,0.917,5.226,0.917c-0.252,0-0.505,0.027-0.752,0.081L2.806,1.359C1.879,1.56,1.085,2.111,0.57,2.913
	C0.054,3.714-0.12,4.666,0.082,5.592l0.878,4.05c0.353,1.626,1.816,2.806,3.481,2.806C4.693,12.448,4.946,12.421,5.193,12.367z
	 M2.915,9.219L2.037,5.168C1.949,4.764,2.025,4.347,2.252,3.995S2.826,3.401,3.23,3.314l1.668-0.362
	c0.108-0.023,0.219-0.035,0.328-0.035c0.73,0,1.373,0.517,1.527,1.229l0.878,4.049c0.182,0.841-0.354,1.673-1.194,1.856
	l-1.668,0.362C3.938,10.593,3.092,10.038,2.915,9.219z M59.927,43.216L44.191,27.512c-1.181-1.178-3.411-2.1-5.078-2.1l-3.429,0.001
	v-3.441c1.963,0,3.561-1.436,3.561-3.2s-1.598-3.2-3.561-3.2H25.649c-1.963,0-3.56,1.436-3.56,3.2s1.597,3.2,3.56,3.2v3.444
	l-0.578,0c-1.144,0-2.854-0.709-3.663-1.517l-9.923-9.922c-1.34-1.341-3.694-1.339-5.034,0l-1.207,1.207
	c-0.67,0.67-1.039,1.564-1.039,2.517c0,0.953,0.369,1.847,1.04,2.517l11.936,11.92c1.181,1.179,3.411,2.102,5.078,2.102h7.408v8.133
	h-4.12c-0.553,0-1,0.448-1,1v4.12h-2.2c-1.963,0-3.56,1.597-3.56,3.56v5.44c0,1.963,1.597,3.56,3.56,3.56h20.48
	c1.963,0,3.561-1.597,3.561-3.56v-5.44c0-1.963-1.598-3.56-3.561-3.56h-2.199v-4.12c0-0.552-0.447-1-1-1h-4.12v-8.133h0.817
	c1.143,0,2.854,0.709,3.663,1.517l13.701,13.701c0.67,0.67,1.563,1.04,2.518,1.04c0.953,0,1.847-0.369,2.517-1.04l1.207-1.207
	c0.671-0.671,1.039-1.564,1.039-2.517C60.969,44.78,60.599,43.886,59.927,43.216z M24.089,18.772c0-0.65,0.714-1.2,1.56-1.2h10.035
	c0.846,0,1.561,0.55,1.561,1.2s-0.715,1.2-1.561,1.2H25.649C24.803,19.972,24.089,19.422,24.089,18.772z M27.649,21.972h6.035v3.442
	l-6.035,0.002V21.972z M44.387,51.052v5.44c0,0.86-0.7,1.56-1.561,1.56h-20.48c-0.86,0-1.56-0.7-1.56-1.56v-5.44
	c0-0.86,0.699-1.56,1.56-1.56h3.2h14.081h3.199C43.687,49.492,44.387,50.192,44.387,51.052z M38.627,47.492H26.546v-3.12h4.12h3.841
	h4.12V47.492z M33.507,42.372h-1.841v-8.133h1.841V42.372z M36.325,32.239h-1.817h-3.841h-8.408c-1.143,0-2.855-0.709-3.664-1.517
	L6.659,18.802C6.366,18.51,6.205,18.119,6.205,17.7c0-0.418,0.161-0.81,0.453-1.103l1.207-1.207
	c0.293-0.292,0.685-0.454,1.104-0.454c0.418,0,0.81,0.161,1.103,0.454l9.923,9.922c1.179,1.179,3.409,2.103,5.077,2.103l0.578,0
	v2.249c0,0.552,0.447,1,1,1s1-0.448,1-1v-2.25l6.035-0.002v2.251c0,0.552,0.447,1,1,1s1-0.448,1-1v-2.252l3.429-0.001
	c1.144,0,2.856,0.708,3.666,1.516l12.931,12.904l-3.276,3.541L41.402,34.341C40.222,33.163,37.992,32.239,36.325,32.239z
	 M58.516,46.836l-1.207,1.207c-0.586,0.586-1.62,0.584-2.206,0l-1.254-1.254l3.277-3.542l1.389,1.386
	c0.293,0.292,0.454,0.683,0.454,1.102C58.969,46.152,58.808,46.543,58.516,46.836z"/>
</svg>